<?xml version="1.0" encoding="utf-8"?>
<!-- Generator: Adobe Illustrator 16.0.0, SVG Export Plug-In . SVG Version: 6.00 Build 0)  -->
<!DOCTYPE svg PUBLIC "-//W3C//DTD SVG 1.1 Basic//EN" "http://www.w3.org/Graphics/SVG/1.1/DTD/svg11-basic.dtd">
<svg version="1.1" baseProfile="basic" xmlns="http://www.w3.org/2000/svg" xmlns:xlink="http://www.w3.org/1999/xlink" x="0px"
	 y="0px" width="390px" height="380px" viewBox="0 0 390 380" xml:space="preserve">
<g id="background">
	<radialGradient id="SVGID_1_" cx="195.5" cy="190" r="192.5162" gradientUnits="userSpaceOnUse">
		<stop  offset="0" style="stop-color:#E6E6E6"/>
		<stop  offset="0.8587" style="stop-color:#E6E6E6"/>
		<stop  offset="1" style="stop-color:#E6E6E6"/>
	</radialGradient>
	<rect x="0.5" fill="url(#SVGID_1_)" width="390" height="380"/>
</g>
<g id="output">
	<rect x="123" y="285" width="256" height="95"/>
	<g>
		<path fill="#FFFFFF" d="M132.393,308.184c0.562,0.299,0.906,0.824,1.032,1.574h-0.77c-0.092-0.42-0.282-0.725-0.57-0.916
			c-0.289-0.191-0.652-0.287-1.09-0.287c-0.521,0-0.958,0.199-1.314,0.598c-0.356,0.398-0.534,0.992-0.534,1.781
			c0,0.682,0.146,1.237,0.44,1.666c0.293,0.428,0.772,0.643,1.436,0.643c0.508,0,0.928-0.15,1.261-0.451s0.503-0.787,0.511-1.459
			h-1.797v-0.645h2.52v3.07h-0.5l-0.188-0.738c-0.259,0.289-0.488,0.489-0.688,0.602c-0.335,0.192-0.762,0.289-1.279,0.289
			c-0.669,0-1.244-0.221-1.726-0.66c-0.525-0.553-0.788-1.311-0.788-2.273c0-0.961,0.257-1.726,0.77-2.293
			c0.488-0.542,1.119-0.812,1.894-0.812C131.546,307.871,132.005,307.975,132.393,308.184z"/>
		<path fill="#FFFFFF" d="M136.471,308.02h0.877l2.083,5.738h-0.852l-0.599-1.719h-2.251l-0.622,1.719h-0.797L136.471,308.02z
			 M137.759,311.406l-0.883-2.535l-0.918,2.535H137.759z"/>
		<path fill="#FFFFFF" d="M143.714,308.02v0.684h-1.934v5.055h-0.785v-5.055h-1.934v-0.684H143.714z"/>
		<path fill="#FFFFFF" d="M144.503,308.02h4.164v0.703h-3.406v1.742h3.148v0.664h-3.148v1.945h3.465v0.684h-4.223V308.02z"/>
	</g>
	<g>
		<path d="M24.966,334.025c0.562,0.299,0.906,0.824,1.032,1.574h-0.77c-0.092-0.42-0.282-0.725-0.57-0.916
			c-0.289-0.191-0.652-0.287-1.09-0.287c-0.521,0-0.958,0.199-1.314,0.598c-0.356,0.398-0.534,0.992-0.534,1.781
			c0,0.682,0.146,1.238,0.44,1.666c0.293,0.428,0.772,0.643,1.436,0.643c0.508,0,0.928-0.15,1.261-0.451s0.503-0.787,0.511-1.459
			h-1.797v-0.645h2.52v3.07h-0.5l-0.188-0.738c-0.259,0.289-0.488,0.49-0.688,0.602c-0.335,0.193-0.762,0.289-1.279,0.289
			c-0.669,0-1.244-0.221-1.726-0.66c-0.525-0.553-0.788-1.311-0.788-2.273c0-0.961,0.257-1.725,0.77-2.293
			c0.488-0.541,1.119-0.812,1.894-0.812C24.119,333.713,24.579,333.816,24.966,334.025z"/>
		<path d="M29.044,333.861h0.877l2.083,5.738h-0.852l-0.599-1.719h-2.251L27.68,339.6h-0.797L29.044,333.861z M30.333,337.248
			l-0.883-2.535l-0.918,2.535H30.333z"/>
		<path d="M36.287,333.861v0.684h-1.934v5.055h-0.785v-5.055h-1.934v-0.684H36.287z"/>
		<path d="M37.076,333.861h4.164v0.703h-3.406v1.742h3.148v0.664h-3.148v1.945h3.465v0.684h-4.223V333.861z"/>
	</g>
	<g>
		<path d="M23.17,200.521h2.608c0.43,0,0.784,0.064,1.062,0.191c0.529,0.244,0.794,0.697,0.794,1.355
			c0,0.344-0.071,0.625-0.213,0.844s-0.34,0.395-0.596,0.527c0.224,0.092,0.393,0.211,0.506,0.359s0.176,0.389,0.189,0.723
			l0.027,0.77c0.008,0.219,0.026,0.381,0.055,0.488c0.047,0.182,0.13,0.299,0.25,0.352v0.129H26.9
			c-0.026-0.049-0.047-0.113-0.062-0.191s-0.029-0.229-0.039-0.453l-0.047-0.957c-0.018-0.375-0.153-0.627-0.406-0.754
			c-0.144-0.07-0.371-0.105-0.679-0.105h-1.719v2.461H23.17V200.521z M25.695,203.15c0.354,0,0.635-0.072,0.841-0.219
			s0.31-0.408,0.31-0.789c0-0.408-0.145-0.688-0.433-0.836c-0.154-0.078-0.361-0.117-0.619-0.117h-1.846v1.961H25.695z"/>
		<path d="M29.693,200.521v3.547c0,0.416,0.079,0.764,0.236,1.039c0.233,0.416,0.627,0.625,1.181,0.625
			c0.664,0,1.116-0.225,1.354-0.676c0.128-0.244,0.193-0.574,0.193-0.988v-3.547h0.785v3.223c0,0.705-0.095,1.248-0.286,1.629
			c-0.35,0.693-1.011,1.039-1.983,1.039s-1.632-0.346-1.979-1.039c-0.191-0.381-0.286-0.924-0.286-1.629v-3.223H29.693z"/>
		<path d="M34.631,200.521h0.916l2.862,4.637v-4.637h0.742v5.738h-0.873l-2.904-4.631v4.631h-0.742V200.521z"/>
	</g>
	<g>
		<path d="M68.776,244.365h2.608c0.43,0,0.784,0.064,1.062,0.191c0.529,0.244,0.794,0.697,0.794,1.355
			c0,0.344-0.071,0.625-0.213,0.844s-0.34,0.395-0.596,0.527c0.224,0.092,0.393,0.211,0.506,0.359s0.176,0.389,0.189,0.723
			l0.027,0.77c0.008,0.219,0.026,0.381,0.055,0.488c0.047,0.182,0.13,0.299,0.25,0.352v0.129h-0.953
			c-0.026-0.049-0.047-0.113-0.062-0.191s-0.029-0.229-0.039-0.453l-0.047-0.957c-0.018-0.375-0.153-0.627-0.406-0.754
			c-0.144-0.07-0.371-0.105-0.679-0.105h-1.719v2.461h-0.777V244.365z M71.301,246.994c0.354,0,0.635-0.072,0.841-0.219
			s0.31-0.408,0.31-0.789c0-0.408-0.145-0.688-0.433-0.836c-0.154-0.078-0.361-0.117-0.619-0.117h-1.846v1.961H71.301z"/>
		<path d="M74.459,244.365h0.916l2.862,4.637v-4.637h0.742v5.738h-0.873l-2.904-4.631v4.631h-0.742V244.365z"/>
		<path d="M80.272,244.365h2.293c0.779,0,1.383,0.279,1.812,0.84c0.383,0.506,0.574,1.152,0.574,1.941
			c0,0.609-0.113,1.16-0.339,1.652c-0.398,0.869-1.083,1.305-2.054,1.305h-2.286V244.365z M82.413,249.439
			c0.257,0,0.468-0.027,0.634-0.082c0.295-0.102,0.537-0.297,0.726-0.586c0.15-0.232,0.258-0.529,0.325-0.891
			c0.038-0.217,0.057-0.416,0.057-0.602c0-0.711-0.138-1.264-0.415-1.656s-0.721-0.59-1.335-0.59h-1.348v4.406H82.413z"/>
	</g>
	<g>
		<path d="M48.644,121.55h0.777v5.055H52.3v0.684h-3.656V121.55z"/>
		<path d="M52.958,121.55l1.648,4.887l1.629-4.887h0.871l-2.094,5.738h-0.824l-2.09-5.738H52.958z"/>
		<path d="M57.839,121.55h0.777v5.055h2.879v0.684h-3.656V121.55z"/>
	</g>
	<g>
		<path d="M101.039,165.602h2.568c0.507,0,0.917,0.144,1.229,0.432s0.468,0.692,0.468,1.213c0,0.448-0.139,0.838-0.418,1.17
			c-0.278,0.332-0.705,0.498-1.278,0.498h-1.792v2.426h-0.777V165.602z M104.054,166.391c-0.171-0.081-0.405-0.121-0.702-0.121
			h-1.536v1.988h1.536c0.347,0,0.628-0.074,0.844-0.223s0.324-0.41,0.324-0.785C104.52,166.828,104.364,166.542,104.054,166.391z"/>
		<path d="M111.027,166.422c0.38,0.508,0.57,1.158,0.57,1.949c0,0.857-0.217,1.569-0.652,2.137c-0.51,0.667-1.238,1-2.184,1
			c-0.883,0-1.577-0.292-2.082-0.875c-0.451-0.562-0.676-1.273-0.676-2.133c0-0.776,0.193-1.44,0.578-1.992
			c0.495-0.708,1.227-1.062,2.195-1.062C109.791,165.445,110.541,165.771,111.027,166.422z M110.342,170.08
			c0.306-0.491,0.459-1.056,0.459-1.695c0-0.675-0.176-1.219-0.529-1.63s-0.835-0.618-1.447-0.618c-0.594,0-1.078,0.204-1.453,0.612
			s-0.562,1.009-0.562,1.804c0,0.636,0.161,1.172,0.482,1.609s0.843,0.655,1.564,0.655
			C109.541,170.816,110.036,170.571,110.342,170.08z"/>
		<path d="M113.031,169.488c0.018,0.326,0.092,0.59,0.222,0.793c0.248,0.38,0.686,0.57,1.313,0.57c0.281,0,0.537-0.042,0.768-0.125
			c0.447-0.162,0.67-0.451,0.67-0.867c0-0.312-0.095-0.535-0.284-0.668c-0.192-0.13-0.492-0.244-0.901-0.34l-0.753-0.176
			c-0.492-0.115-0.84-0.241-1.044-0.379c-0.353-0.24-0.53-0.598-0.53-1.074c0-0.516,0.174-0.939,0.521-1.27
			c0.348-0.331,0.839-0.496,1.475-0.496c0.585,0,1.083,0.145,1.492,0.436c0.409,0.291,0.614,0.754,0.614,1.393h-0.73
			c-0.038-0.307-0.117-0.543-0.24-0.707c-0.227-0.299-0.613-0.449-1.157-0.449c-0.439,0-0.755,0.096-0.948,0.289
			c-0.192,0.193-0.288,0.417-0.288,0.672c0,0.281,0.113,0.487,0.341,0.617c0.148,0.083,0.485,0.188,1.01,0.312l0.78,0.184
			c0.376,0.088,0.666,0.209,0.871,0.363c0.353,0.268,0.53,0.658,0.53,1.168c0,0.635-0.226,1.09-0.676,1.363s-0.975,0.41-1.571,0.41
			c-0.696,0-1.241-0.182-1.634-0.547c-0.394-0.362-0.587-0.853-0.579-1.473H113.031z"/>
	</g>
	<g>
		<path d="M290.853,184.391h0.777v5.055h2.879v0.684h-3.656V184.391z"/>
		<path d="M295.376,184.391h4.164v0.703h-3.406v1.742h3.148v0.664h-3.148v1.945h3.465v0.684h-4.223V184.391z"/>
		<path d="M300.638,184.391h0.915l2.862,4.636v-4.636h0.742v5.738h-0.873l-2.904-4.631v4.631h-0.742V184.391z"/>
		<path d="M310.234,184.555c0.562,0.299,0.906,0.824,1.032,1.574h-0.77c-0.092-0.419-0.282-0.725-0.569-0.916
			c-0.289-0.191-0.652-0.287-1.091-0.287c-0.521,0-0.958,0.199-1.313,0.598c-0.356,0.398-0.534,0.992-0.534,1.781
			c0,0.682,0.146,1.238,0.44,1.666c0.293,0.428,0.771,0.643,1.436,0.643c0.508,0,0.928-0.15,1.262-0.451
			c0.332-0.301,0.503-0.787,0.511-1.459h-1.797v-0.645h2.52v3.07h-0.5l-0.188-0.738c-0.259,0.289-0.488,0.49-0.688,0.602
			c-0.335,0.193-0.762,0.289-1.279,0.289c-0.668,0-1.243-0.22-1.725-0.66c-0.525-0.552-0.788-1.31-0.788-2.273
			c0-0.961,0.257-1.725,0.771-2.293c0.487-0.542,1.119-0.812,1.894-0.812C309.388,184.242,309.848,184.346,310.234,184.555z"/>
		<path d="M316.81,184.391v0.684h-1.934v5.055h-0.785v-5.055h-1.934v-0.684H316.81z"/>
		<path d="M317.544,184.391h0.785v2.371h2.949v-2.371h0.785v5.738h-0.785v-2.684h-2.949v2.684h-0.785V184.391z"/>
	</g>
	<g>
		<path d="M342.423,215.548v0.684h-1.934v5.055h-0.785v-5.055h-1.934v-0.684H342.423z"/>
		<path d="M343.212,215.548h4.164v0.703h-3.406v1.742h3.148v0.664h-3.148v1.945h3.465v0.684h-4.223V215.548z"/>
		<path d="M348.454,215.548h1.114l1.649,4.852l1.638-4.852h1.106v5.738h-0.742v-3.387c0-0.117,0.003-0.312,0.008-0.582
			s0.008-0.562,0.008-0.871l-1.638,4.84h-0.771l-1.653-4.84v0.176c0,0.141,0.004,0.354,0.012,0.643s0.012,0.499,0.012,0.635v3.387
			h-0.742V215.548z"/>
		<path d="M355.212,215.548h2.567c0.508,0,0.918,0.144,1.23,0.432c0.312,0.288,0.468,0.692,0.468,1.213
			c0,0.448-0.14,0.838-0.418,1.17s-0.704,0.498-1.278,0.498h-1.792v2.426h-0.777V215.548z M358.227,216.337
			c-0.17-0.081-0.404-0.121-0.701-0.121h-1.536v1.988h1.536c0.346,0,0.627-0.074,0.844-0.223c0.215-0.148,0.323-0.41,0.323-0.785
			C358.692,216.774,358.537,216.488,358.227,216.337z"/>
		<path d="M365.2,216.368c0.38,0.508,0.57,1.157,0.57,1.949c0,0.856-0.218,1.569-0.652,2.137c-0.511,0.667-1.238,1-2.184,1
			c-0.883,0-1.577-0.292-2.082-0.875c-0.45-0.562-0.676-1.273-0.676-2.133c0-0.776,0.192-1.44,0.578-1.992
			c0.495-0.708,1.227-1.062,2.195-1.062C363.963,215.392,364.713,215.717,365.2,216.368z M364.515,220.025
			c0.306-0.49,0.459-1.056,0.459-1.694c0-0.675-0.177-1.219-0.529-1.63c-0.353-0.412-0.835-0.618-1.447-0.618
			c-0.594,0-1.078,0.204-1.453,0.612c-0.375,0.407-0.562,1.009-0.562,1.804c0,0.636,0.161,1.173,0.482,1.608
			c0.321,0.438,0.843,0.655,1.564,0.655C363.713,220.763,364.209,220.518,364.515,220.025z"/>
	</g>
	<g>
		<path d="M347.265,185.391h0.878l2.082,5.738h-0.852l-0.6-1.719h-2.251l-0.622,1.719h-0.797L347.265,185.391z M348.553,188.777
			l-0.883-2.535l-0.918,2.535H348.553z"/>
		<path d="M350.961,185.391h2.293c0.779,0,1.383,0.28,1.812,0.84c0.383,0.505,0.574,1.152,0.574,1.941
			c0,0.609-0.113,1.16-0.34,1.652c-0.397,0.87-1.082,1.305-2.054,1.305h-2.286V185.391z M353.102,190.465
			c0.258,0,0.469-0.027,0.635-0.082c0.295-0.102,0.537-0.297,0.726-0.586c0.149-0.232,0.259-0.529,0.325-0.891
			c0.037-0.216,0.057-0.417,0.057-0.602c0-0.711-0.139-1.263-0.414-1.656c-0.277-0.393-0.722-0.59-1.336-0.59h-1.348v4.406H353.102z
			"/>
		<path d="M356.738,185.391h2.293c0.779,0,1.383,0.28,1.812,0.84c0.383,0.505,0.574,1.152,0.574,1.941
			c0,0.609-0.113,1.16-0.34,1.652c-0.397,0.87-1.082,1.305-2.054,1.305h-2.286V185.391z M358.879,190.465
			c0.258,0,0.469-0.027,0.635-0.082c0.295-0.102,0.537-0.297,0.726-0.586c0.149-0.232,0.259-0.529,0.325-0.891
			c0.037-0.216,0.057-0.417,0.057-0.602c0-0.711-0.139-1.263-0.414-1.656c-0.277-0.393-0.722-0.59-1.336-0.59h-1.348v4.406H358.879z
			"/>
	</g>
	<g>
		<path fill="#FFFFFF" d="M344.977,331.279c0.396,0.383,0.615,0.817,0.66,1.305h-0.758c-0.085-0.37-0.253-0.663-0.505-0.879
			c-0.252-0.217-0.605-0.324-1.062-0.324c-0.555,0-1.002,0.198-1.344,0.596s-0.512,1.007-0.512,1.828
			c0,0.672,0.154,1.217,0.462,1.636s0.769,0.628,1.38,0.628c0.562,0,0.99-0.221,1.285-0.66c0.156-0.232,0.272-0.537,0.35-0.914
			h0.758c-0.067,0.604-0.289,1.11-0.664,1.52c-0.451,0.492-1.059,0.738-1.823,0.738c-0.659,0-1.212-0.203-1.66-0.606
			c-0.589-0.534-0.884-1.358-0.884-2.474c0-0.848,0.221-1.542,0.664-2.084c0.479-0.589,1.139-0.883,1.98-0.883
			C344.022,330.705,344.58,330.896,344.977,331.279z"/>
		<path fill="#FFFFFF" d="M346.695,330.861h0.777v5.055h2.879v0.684h-3.656V330.861z"/>
		<path fill="#FFFFFF" d="M355.871,331.682c0.38,0.508,0.57,1.157,0.57,1.949c0,0.856-0.218,1.568-0.652,2.137
			c-0.511,0.666-1.238,1-2.184,1c-0.883,0-1.577-0.292-2.082-0.875c-0.451-0.562-0.676-1.273-0.676-2.133
			c0-0.776,0.192-1.44,0.578-1.992c0.494-0.709,1.227-1.062,2.195-1.062C354.634,330.705,355.384,331.03,355.871,331.682z
			 M355.186,335.339c0.306-0.491,0.459-1.056,0.459-1.694c0-0.676-0.177-1.219-0.529-1.631c-0.354-0.412-0.836-0.617-1.447-0.617
			c-0.594,0-1.078,0.203-1.453,0.611s-0.562,1.01-0.562,1.805c0,0.636,0.16,1.172,0.482,1.608c0.321,0.437,0.843,0.655,1.564,0.655
			C354.384,336.076,354.879,335.83,355.186,335.339z"/>
		<path fill="#FFFFFF" d="M361.426,331.279c0.396,0.383,0.615,0.817,0.66,1.305h-0.758c-0.085-0.37-0.253-0.663-0.505-0.879
			c-0.252-0.217-0.605-0.324-1.062-0.324c-0.555,0-1.002,0.198-1.344,0.596s-0.512,1.007-0.512,1.828
			c0,0.672,0.154,1.217,0.462,1.636s0.769,0.628,1.38,0.628c0.562,0,0.99-0.221,1.285-0.66c0.156-0.232,0.272-0.537,0.35-0.914
			h0.758c-0.067,0.604-0.289,1.11-0.664,1.52c-0.451,0.492-1.059,0.738-1.823,0.738c-0.659,0-1.212-0.203-1.66-0.606
			c-0.589-0.534-0.884-1.358-0.884-2.474c0-0.848,0.221-1.542,0.664-2.084c0.479-0.589,1.139-0.883,1.98-0.883
			C360.472,330.705,361.029,330.896,361.426,331.279z"/>
		<path fill="#FFFFFF" d="M363.145,330.861h0.758v2.809l2.871-2.809h1.086l-2.451,2.315l2.502,3.423h-1.018l-2.056-2.884
			l-0.935,0.884v2h-0.758V330.861z"/>
	</g>
	<g>
		<path d="M22,290.279c0.396,0.383,0.616,0.818,0.66,1.305h-0.758c-0.084-0.369-0.252-0.662-0.504-0.879
			c-0.252-0.216-0.605-0.324-1.061-0.324c-0.555,0-1.003,0.199-1.344,0.597s-0.512,1.007-0.512,1.827
			c0,0.673,0.154,1.219,0.462,1.637s0.768,0.627,1.379,0.627c0.563,0,0.991-0.22,1.286-0.66c0.156-0.231,0.272-0.536,0.349-0.914
			h0.758c-0.067,0.604-0.288,1.111-0.664,1.52c-0.451,0.492-1.058,0.738-1.823,0.738c-0.659,0-1.212-0.201-1.66-0.605
			c-0.589-0.534-0.884-1.359-0.884-2.475c0-0.846,0.221-1.541,0.664-2.083c0.479-0.589,1.139-0.884,1.98-0.884
			C21.046,289.705,21.603,289.896,22,290.279z"/>
		<path d="M23.718,289.861h0.777v5.055h2.879v0.684h-3.656V289.861z"/>
		<path d="M32.894,290.682c0.38,0.508,0.57,1.158,0.57,1.949c0,0.857-0.217,1.569-0.652,2.137c-0.51,0.667-1.238,1-2.184,1
			c-0.883,0-1.577-0.291-2.082-0.875c-0.451-0.562-0.676-1.273-0.676-2.133c0-0.775,0.193-1.439,0.578-1.992
			c0.495-0.708,1.227-1.062,2.195-1.062C31.657,289.705,32.407,290.031,32.894,290.682z M32.208,294.34
			c0.306-0.491,0.459-1.057,0.459-1.695c0-0.675-0.176-1.219-0.529-1.63s-0.835-0.618-1.447-0.618c-0.594,0-1.078,0.205-1.453,0.612
			s-0.562,1.009-0.562,1.804c0,0.637,0.161,1.173,0.482,1.609s0.843,0.654,1.564,0.654C31.407,295.076,31.902,294.831,32.208,294.34
			z"/>
		<path d="M38.449,290.279c0.396,0.383,0.616,0.818,0.66,1.305h-0.758c-0.084-0.369-0.252-0.662-0.504-0.879
			c-0.252-0.216-0.605-0.324-1.061-0.324c-0.555,0-1.003,0.199-1.344,0.597s-0.512,1.007-0.512,1.827
			c0,0.673,0.154,1.219,0.462,1.637s0.768,0.627,1.379,0.627c0.563,0,0.991-0.22,1.286-0.66c0.156-0.231,0.272-0.536,0.349-0.914
			h0.758c-0.067,0.604-0.288,1.111-0.664,1.52c-0.451,0.492-1.058,0.738-1.823,0.738c-0.659,0-1.212-0.201-1.66-0.605
			c-0.589-0.534-0.884-1.359-0.884-2.475c0-0.846,0.221-1.541,0.664-2.083c0.479-0.589,1.139-0.884,1.98-0.884
			C37.495,289.705,38.052,289.896,38.449,290.279z"/>
		<path d="M40.167,289.861h0.758v2.809l2.871-2.809h1.086l-2.452,2.316l2.502,3.422h-1.017l-2.056-2.883l-0.935,0.883v2h-0.758
			V289.861z"/>
	</g>
	<g>
		<path d="M68.997,289.695h2.608c0.43,0,0.784,0.063,1.062,0.191c0.529,0.244,0.794,0.696,0.794,1.355
			c0,0.344-0.071,0.625-0.213,0.844s-0.34,0.395-0.596,0.527c0.224,0.091,0.393,0.211,0.506,0.359s0.176,0.389,0.189,0.723
			l0.027,0.77c0.008,0.219,0.026,0.381,0.055,0.488c0.047,0.182,0.13,0.299,0.25,0.352v0.129h-0.953
			c-0.026-0.05-0.047-0.113-0.062-0.191s-0.029-0.229-0.039-0.453l-0.047-0.957c-0.018-0.375-0.153-0.627-0.406-0.754
			c-0.144-0.07-0.371-0.105-0.679-0.105h-1.719v2.461h-0.777V289.695z M71.521,292.324c0.354,0,0.635-0.073,0.841-0.219
			c0.207-0.146,0.31-0.409,0.31-0.789c0-0.409-0.145-0.688-0.433-0.836c-0.154-0.078-0.361-0.117-0.619-0.117h-1.846v1.961H71.521z"
			/>
		<path d="M74.754,289.695h4.164v0.703h-3.406v1.742h3.148v0.664h-3.148v1.945h3.465v0.684h-4.223V289.695z"/>
		<path d="M84.075,290.113c0.396,0.383,0.616,0.817,0.66,1.305h-0.758c-0.084-0.37-0.252-0.663-0.504-0.879
			c-0.252-0.217-0.605-0.324-1.061-0.324c-0.555,0-1.003,0.198-1.344,0.596s-0.512,1.007-0.512,1.828
			c0,0.672,0.154,1.217,0.462,1.636s0.768,0.628,1.379,0.628c0.563,0,0.991-0.221,1.286-0.66c0.156-0.232,0.272-0.537,0.349-0.914
			h0.758c-0.067,0.604-0.288,1.11-0.664,1.52c-0.451,0.492-1.058,0.738-1.823,0.738c-0.659,0-1.212-0.203-1.66-0.606
			c-0.589-0.534-0.884-1.358-0.884-2.474c0-0.848,0.221-1.542,0.664-2.084c0.479-0.589,1.139-0.883,1.98-0.883
			C83.121,289.539,83.678,289.73,84.075,290.113z"/>
	</g>
	<g>
		<path fill="#FFFFFF" d="M167.168,330.209v-1.137c0.526-0.023,0.894-0.059,1.104-0.105c0.335-0.074,0.608-0.223,0.818-0.445
			c0.144-0.152,0.253-0.355,0.327-0.609c0.043-0.152,0.064-0.266,0.064-0.34h1.395v8.496h-1.711v-5.859H167.168z"/>
	</g>
	<g>
		<path fill="#FFFFFF" d="M213.357,334.398c0.238-0.566,0.801-1.166,1.688-1.799c0.77-0.551,1.268-0.945,1.494-1.184
			c0.348-0.371,0.521-0.777,0.521-1.219c0-0.359-0.1-0.658-0.299-0.896s-0.484-0.357-0.855-0.357c-0.508,0-0.854,0.189-1.037,0.568
			c-0.105,0.219-0.168,0.566-0.188,1.043h-1.623c0.027-0.723,0.158-1.307,0.393-1.752c0.446-0.848,1.238-1.271,2.376-1.271
			c0.899,0,1.614,0.25,2.146,0.748s0.798,1.156,0.798,1.977c0,0.629-0.188,1.188-0.563,1.676c-0.247,0.324-0.651,0.686-1.216,1.084
			l-0.669,0.475c-0.419,0.297-0.705,0.512-0.859,0.645s-0.284,0.287-0.39,0.463h3.709v1.471h-5.818
			C212.98,335.459,213.111,334.902,213.357,334.398z"/>
	</g>
	<g>
		<path fill="#FFFFFF" d="M259.199,333.461c0,0.34,0.055,0.621,0.164,0.844c0.202,0.41,0.57,0.615,1.104,0.615
			c0.327,0,0.612-0.111,0.856-0.336c0.243-0.225,0.365-0.549,0.365-0.971c0-0.559-0.227-0.932-0.678-1.119
			c-0.257-0.105-0.662-0.158-1.215-0.158v-1.195c0.541-0.008,0.918-0.061,1.133-0.158c0.369-0.164,0.555-0.496,0.555-0.996
			c0-0.324-0.095-0.588-0.283-0.791c-0.189-0.203-0.455-0.305-0.798-0.305c-0.394,0-0.683,0.125-0.868,0.375
			s-0.273,0.584-0.266,1.002h-1.559c0.016-0.422,0.088-0.822,0.217-1.201c0.137-0.332,0.352-0.639,0.644-0.92
			c0.219-0.199,0.478-0.352,0.778-0.457s0.67-0.158,1.106-0.158c0.812,0,1.466,0.211,1.964,0.631s0.746,0.982,0.746,1.689
			c0,0.5-0.148,0.922-0.445,1.266c-0.188,0.215-0.383,0.361-0.586,0.439c0.152,0,0.371,0.131,0.656,0.393
			c0.426,0.395,0.639,0.934,0.639,1.617c0,0.719-0.249,1.352-0.746,1.896c-0.498,0.545-1.234,0.816-2.21,0.816
			c-1.202,0-2.037-0.393-2.505-1.178c-0.246-0.418-0.383-0.965-0.41-1.641H259.199z"/>
	</g>
	<g>
		<path fill="#FFFFFF" d="M309.705,334.24h-0.961v1.828h-1.635v-1.828h-3.363v-1.459l3.123-5.156h1.875v5.309h0.961V334.24z
			 M307.109,332.934v-3.659l-2.12,3.659H307.109z"/>
	</g>
	<g>
		<path fill="#FFFFFF" d="M137.369,354.279c0.396,0.383,0.616,0.817,0.66,1.305h-0.758c-0.084-0.37-0.252-0.663-0.504-0.879
			c-0.252-0.217-0.605-0.324-1.061-0.324c-0.555,0-1.003,0.198-1.344,0.596s-0.512,1.007-0.512,1.828
			c0,0.672,0.154,1.217,0.462,1.636s0.768,0.628,1.379,0.628c0.563,0,0.991-0.221,1.286-0.66c0.156-0.232,0.272-0.537,0.349-0.914
			h0.758c-0.067,0.604-0.288,1.11-0.664,1.52c-0.451,0.492-1.058,0.738-1.823,0.738c-0.659,0-1.212-0.203-1.66-0.606
			c-0.589-0.534-0.884-1.358-0.884-2.474c0-0.848,0.221-1.542,0.664-2.084c0.479-0.589,1.139-0.883,1.98-0.883
			C136.416,353.705,136.973,353.896,137.369,354.279z"/>
		<path fill="#FFFFFF" d="M139.543,353.861l1.648,4.887l1.629-4.887h0.871l-2.094,5.738h-0.824l-2.09-5.738H139.543z"/>
	</g>
	<g>
		<path d="M75.85,334.279c0.396,0.383,0.616,0.818,0.66,1.305h-0.758c-0.084-0.369-0.252-0.662-0.504-0.879
			s-0.605-0.324-1.061-0.324c-0.555,0-1.003,0.199-1.344,0.596c-0.341,0.398-0.512,1.008-0.512,1.828
			c0,0.672,0.154,1.218,0.462,1.637c0.308,0.418,0.768,0.627,1.379,0.627c0.563,0,0.991-0.221,1.286-0.66
			c0.156-0.232,0.272-0.537,0.349-0.914h0.758c-0.067,0.604-0.288,1.111-0.664,1.52c-0.451,0.492-1.058,0.738-1.823,0.738
			c-0.659,0-1.212-0.202-1.66-0.605c-0.589-0.535-0.884-1.359-0.884-2.475c0-0.847,0.221-1.541,0.664-2.084
			c0.479-0.588,1.139-0.883,1.98-0.883C74.896,333.705,75.454,333.896,75.85,334.279z"/>
		<path d="M78.024,333.861l1.648,4.887l1.629-4.887h0.871l-2.094,5.738h-0.824l-2.09-5.738H78.024z"/>
	</g>
	<rect x="12" y="14.667" width="367" height="95"/>
	<line fill="none" stroke="#7E7E7E" stroke-miterlimit="10" x1="11.45" y1="195.333" x2="378.45" y2="195.333"/>
	<line fill="none" stroke="#000000" stroke-miterlimit="10" x1="12" y1="285" x2="379" y2="285"/>
	<g>
		<path d="M18.556,244.564h2.608c0.43,0,0.784,0.064,1.062,0.191c0.529,0.244,0.794,0.697,0.794,1.355
			c0,0.344-0.071,0.625-0.213,0.844s-0.34,0.395-0.596,0.527c0.224,0.092,0.393,0.211,0.506,0.359s0.176,0.389,0.189,0.723
			l0.027,0.77c0.008,0.219,0.026,0.381,0.055,0.488c0.047,0.182,0.13,0.299,0.25,0.352v0.129h-0.953
			c-0.026-0.049-0.047-0.113-0.062-0.191s-0.029-0.229-0.039-0.453l-0.047-0.957c-0.018-0.375-0.153-0.627-0.406-0.754
			c-0.144-0.07-0.371-0.105-0.679-0.105h-1.719v2.461h-0.777V244.564z M21.081,247.193c0.354,0,0.635-0.072,0.841-0.219
			s0.31-0.408,0.31-0.789c0-0.408-0.145-0.688-0.433-0.836c-0.154-0.078-0.361-0.117-0.619-0.117h-1.846v1.961H21.081z"/>
		<path d="M24.313,244.564h4.164v0.703h-3.406v1.742h3.148v0.664h-3.148v1.945h3.465v0.684h-4.223V244.564z"/>
		<path d="M30.083,248.451c0.018,0.326,0.092,0.59,0.222,0.793c0.248,0.381,0.686,0.57,1.313,0.57c0.281,0,0.537-0.041,0.768-0.125
			c0.447-0.162,0.67-0.451,0.67-0.867c0-0.312-0.095-0.535-0.284-0.668c-0.192-0.131-0.492-0.244-0.901-0.34l-0.753-0.176
			c-0.492-0.115-0.84-0.24-1.044-0.379c-0.353-0.24-0.53-0.598-0.53-1.074c0-0.516,0.174-0.939,0.521-1.27
			c0.348-0.33,0.839-0.496,1.475-0.496c0.585,0,1.083,0.145,1.492,0.436c0.409,0.291,0.614,0.754,0.614,1.393h-0.73
			c-0.038-0.307-0.117-0.543-0.24-0.707c-0.227-0.299-0.613-0.449-1.157-0.449c-0.439,0-0.755,0.096-0.948,0.289
			c-0.192,0.193-0.288,0.416-0.288,0.672c0,0.281,0.113,0.486,0.341,0.617c0.148,0.084,0.485,0.188,1.01,0.312l0.78,0.184
			c0.376,0.088,0.666,0.209,0.871,0.363c0.353,0.268,0.53,0.658,0.53,1.168c0,0.635-0.226,1.09-0.676,1.363s-0.975,0.41-1.571,0.41
			c-0.696,0-1.241-0.182-1.634-0.547c-0.394-0.361-0.587-0.854-0.579-1.473H30.083z"/>
		<path d="M34.985,244.564h4.164v0.703h-3.406v1.742h3.148v0.664h-3.148v1.945h3.465v0.684h-4.223V244.564z"/>
		<path d="M44.419,244.564v0.684h-1.934v5.055H41.7v-5.055h-1.934v-0.684H44.419z"/>
	</g>
</g>
<g id="rendered" display="none">
	
		<g id="layer1_33_" transform="translate(-88.611154,-119.19859)" inkscape:groupmode="layer" inkscape:label="Layer 1" display="inline">
		<path id="path7255_15_" inkscape:connector-curvature="0" fill="#E6E6E5" stroke="#646764" stroke-width="0.25" d="
			M315.459,429.629c0,6.336-5.152,11.488-11.488,11.488s-11.488-5.152-11.488-11.488s5.152-11.488,11.488-11.488
			S315.459,423.293,315.459,429.629"/>
		<path id="path7261_15_" inkscape:connector-curvature="0" fill="#E6E6E5" stroke="#646764" stroke-width="0.25" d="
			M312.244,429.629c0,4.562-3.711,8.273-8.273,8.273s-8.273-3.711-8.273-8.273s3.711-8.273,8.273-8.273
			S312.244,425.067,312.244,429.629"/>
		<path id="path7265_15_" inkscape:connector-curvature="0" fill="#010101" d="M303.971,424.528c2.816,0,5.102,2.285,5.102,5.102
			s-2.285,5.102-5.102,5.102s-5.102-2.285-5.102-5.102S301.154,424.528,303.971,424.528"/>
	</g>
	
		<g id="layer1_32_" transform="translate(-88.611154,-119.19859)" inkscape:groupmode="layer" inkscape:label="Layer 1" display="inline">
		<path id="path7255_13_" inkscape:connector-curvature="0" fill="#E6E6E5" stroke="#646764" stroke-width="0.25" d="
			M406.963,429.629c0,6.336-5.152,11.488-11.488,11.488s-11.488-5.152-11.488-11.488s5.152-11.488,11.488-11.488
			S406.963,423.293,406.963,429.629"/>
		<path id="path7261_13_" inkscape:connector-curvature="0" fill="#E6E6E5" stroke="#646764" stroke-width="0.25" d="
			M403.748,429.629c0,4.562-3.711,8.273-8.273,8.273s-8.273-3.711-8.273-8.273s3.711-8.273,8.273-8.273
			S403.748,425.067,403.748,429.629"/>
		<path id="path7265_13_" inkscape:connector-curvature="0" fill="#010101" d="M395.474,424.528c2.816,0,5.102,2.285,5.102,5.102
			s-2.285,5.102-5.102,5.102s-5.102-2.285-5.102-5.102S392.658,424.528,395.474,424.528"/>
	</g>
	
		<g id="layer1_31_" transform="translate(-88.611154,-119.19859)" inkscape:groupmode="layer" inkscape:label="Layer 1" display="inline">
		<path id="path7255_12_" inkscape:connector-curvature="0" fill="#E6E6E5" stroke="#646764" stroke-width="0.25" d="
			M269.51,429.629c0,6.336-5.15,11.488-11.486,11.488s-11.488-5.152-11.488-11.488s5.152-11.488,11.488-11.488
			S269.51,423.293,269.51,429.629"/>
		<path id="path7261_12_" inkscape:connector-curvature="0" fill="#E6E6E5" stroke="#646764" stroke-width="0.25" d="
			M266.297,429.629c0,4.562-3.711,8.273-8.273,8.273s-8.273-3.711-8.273-8.273s3.711-8.273,8.273-8.273
			S266.297,425.067,266.297,429.629"/>
		<path id="path7265_12_" inkscape:connector-curvature="0" fill="#010101" d="M258.023,424.528c2.816,0,5.102,2.285,5.102,5.102
			s-2.285,5.102-5.102,5.102s-5.102-2.285-5.102-5.102S255.207,424.528,258.023,424.528"/>
	</g>
	
		<g id="layer1_30_" transform="translate(-88.611154,-119.19859)" inkscape:groupmode="layer" inkscape:label="Layer 1" display="inline">
		<path id="path7255_11_" inkscape:connector-curvature="0" fill="#E6E6E5" stroke="#646764" stroke-width="0.25" d="
			M360.443,429.629c0,6.336-5.152,11.488-11.488,11.488s-11.488-5.152-11.488-11.488s5.152-11.488,11.488-11.488
			S360.443,423.293,360.443,429.629"/>
		<path id="path7261_11_" inkscape:connector-curvature="0" fill="#E6E6E5" stroke="#646764" stroke-width="0.25" d="
			M357.228,429.629c0,4.562-3.711,8.273-8.273,8.273s-8.273-3.711-8.273-8.273s3.711-8.273,8.273-8.273
			S357.228,425.067,357.228,429.629"/>
		<path id="path7265_11_" inkscape:connector-curvature="0" fill="#010101" d="M348.955,424.528c2.816,0,5.102,2.285,5.102,5.102
			s-2.285,5.102-5.102,5.102s-5.102-2.285-5.102-5.102S346.138,424.528,348.955,424.528"/>
	</g>
	
		<g id="layer1_29_" transform="translate(-88.611154,-119.19859)" inkscape:groupmode="layer" inkscape:label="Layer 1" display="inline">
		<path id="path7255_9_" inkscape:connector-curvature="0" fill="#E6E6E5" stroke="#646764" stroke-width="0.25" d="
			M315.459,474.256c0,6.336-5.152,11.488-11.488,11.488s-11.488-5.152-11.488-11.488s5.152-11.488,11.488-11.488
			S315.459,467.92,315.459,474.256"/>
		<path id="path7261_9_" inkscape:connector-curvature="0" fill="#E6E6E5" stroke="#646764" stroke-width="0.25" d="
			M312.244,474.256c0,4.562-3.711,8.273-8.273,8.273s-8.273-3.711-8.273-8.273s3.711-8.273,8.273-8.273
			S312.244,469.694,312.244,474.256"/>
		<path id="path7265_9_" inkscape:connector-curvature="0" fill="#010101" d="M303.971,469.155c2.816,0,5.102,2.285,5.102,5.102
			s-2.285,5.102-5.102,5.102s-5.102-2.285-5.102-5.102S301.154,469.155,303.971,469.155"/>
	</g>
	
		<g id="layer1_28_" transform="translate(-88.611154,-119.19859)" inkscape:groupmode="layer" inkscape:label="Layer 1" display="inline">
		<path id="path7255_8_" inkscape:connector-curvature="0" fill="#E6E6E5" stroke="#646764" stroke-width="0.25" d="
			M406.963,474.256c0,6.336-5.152,11.488-11.488,11.488s-11.488-5.152-11.488-11.488s5.152-11.488,11.488-11.488
			S406.963,467.92,406.963,474.256"/>
		<path id="path7261_8_" inkscape:connector-curvature="0" fill="#E6E6E5" stroke="#646764" stroke-width="0.25" d="
			M403.748,474.256c0,4.562-3.711,8.273-8.273,8.273s-8.273-3.711-8.273-8.273s3.711-8.273,8.273-8.273
			S403.748,469.694,403.748,474.256"/>
		<path id="path7265_8_" inkscape:connector-curvature="0" fill="#010101" d="M395.474,469.155c2.816,0,5.102,2.285,5.102,5.102
			s-2.285,5.102-5.102,5.102s-5.102-2.285-5.102-5.102S392.658,469.155,395.474,469.155"/>
	</g>
	
		<g id="layer1_27_" transform="translate(-88.611154,-119.19859)" inkscape:groupmode="layer" inkscape:label="Layer 1" display="inline">
		<path id="path7255_6_" inkscape:connector-curvature="0" fill="#E6E6E5" stroke="#646764" stroke-width="0.25" d="M269.51,474.256
			c0,6.336-5.15,11.488-11.486,11.488s-11.488-5.152-11.488-11.488s5.152-11.488,11.488-11.488S269.51,467.92,269.51,474.256"/>
		<path id="path7261_6_" inkscape:connector-curvature="0" fill="#E6E6E5" stroke="#646764" stroke-width="0.25" d="
			M266.297,474.256c0,4.562-3.711,8.273-8.273,8.273s-8.273-3.711-8.273-8.273s3.711-8.273,8.273-8.273
			S266.297,469.694,266.297,474.256"/>
		<path id="path7265_6_" inkscape:connector-curvature="0" fill="#010101" d="M258.023,469.155c2.816,0,5.102,2.285,5.102,5.102
			s-2.285,5.102-5.102,5.102s-5.102-2.285-5.102-5.102S255.207,469.155,258.023,469.155"/>
	</g>
	
		<g id="layer1_19_" transform="translate(-88.611154,-119.19859)" inkscape:groupmode="layer" inkscape:label="Layer 1" display="inline">
		<path id="path7255_18_" inkscape:connector-curvature="0" fill="#E6E6E5" stroke="#646764" stroke-width="0.25" d="
			M176.837,384.758c0,6.336-5.15,11.488-11.486,11.488s-11.488-5.152-11.488-11.488s5.152-11.488,11.488-11.488
			S176.837,378.422,176.837,384.758"/>
		<path id="path7261_18_" inkscape:connector-curvature="0" fill="#E6E6E5" stroke="#646764" stroke-width="0.25" d="
			M173.624,384.758c0,4.562-3.711,8.273-8.273,8.273s-8.273-3.711-8.273-8.273s3.711-8.273,8.273-8.273
			S173.624,380.196,173.624,384.758"/>
		<path id="path7265_18_" inkscape:connector-curvature="0" fill="#010101" d="M165.351,379.657c2.816,0,5.102,2.285,5.102,5.102
			s-2.285,5.102-5.102,5.102s-5.102-2.285-5.102-5.102S162.534,379.657,165.351,379.657"/>
	</g>
	
		<g id="layer1_25_" transform="translate(-88.611154,-119.19859)" inkscape:groupmode="layer" inkscape:label="Layer 1" display="inline">
		<path id="path7255_4_" inkscape:connector-curvature="0" fill="#E6E6E5" stroke="#646764" stroke-width="0.25" d="
			M176.837,474.012c0,6.336-5.15,11.488-11.486,11.488s-11.488-5.152-11.488-11.488s5.152-11.488,11.488-11.488
			S176.837,467.676,176.837,474.012"/>
		<path id="path7261_4_" inkscape:connector-curvature="0" fill="#E6E6E5" stroke="#646764" stroke-width="0.25" d="
			M173.624,474.012c0,4.562-3.711,8.273-8.273,8.273s-8.273-3.711-8.273-8.273s3.711-8.273,8.273-8.273
			S173.624,469.45,173.624,474.012"/>
		<path id="path7265_4_" inkscape:connector-curvature="0" fill="#010101" d="M165.351,468.911c2.816,0,5.102,2.285,5.102,5.102
			s-2.285,5.102-5.102,5.102s-5.102-2.285-5.102-5.102S162.534,468.911,165.351,468.911"/>
	</g>
	
		<g id="layer1_16_" transform="translate(-88.611154,-119.19859)" inkscape:groupmode="layer" inkscape:label="Layer 1" display="inline">
		<path id="path7255_14_" inkscape:connector-curvature="0" fill="#E6E6E5" stroke="#646764" stroke-width="0.25" d="
			M131.231,429.385c0,6.336-5.15,11.488-11.486,11.488s-11.488-5.152-11.488-11.488s5.152-11.488,11.488-11.488
			S131.231,423.049,131.231,429.385"/>
		<path id="path7261_14_" inkscape:connector-curvature="0" fill="#E6E6E5" stroke="#646764" stroke-width="0.25" d="
			M128.018,429.385c0,4.562-3.711,8.273-8.273,8.273s-8.273-3.711-8.273-8.273s3.711-8.273,8.273-8.273
			S128.018,424.823,128.018,429.385"/>
		<path id="path7265_14_" inkscape:connector-curvature="0" fill="#010101" d="M119.745,424.284c2.816,0,5.102,2.285,5.102,5.102
			s-2.285,5.102-5.102,5.102s-5.102-2.285-5.102-5.102S116.929,424.284,119.745,424.284"/>
	</g>
	
		<g id="layer1_10_" transform="translate(-88.611154,-119.19859)" inkscape:groupmode="layer" inkscape:label="Layer 1" display="inline">
		<path id="path7255_7_" inkscape:connector-curvature="0" fill="#E6E6E5" stroke="#646764" stroke-width="0.25" d="
			M131.231,474.012c0,6.336-5.15,11.488-11.486,11.488s-11.488-5.152-11.488-11.488s5.152-11.488,11.488-11.488
			S131.231,467.676,131.231,474.012"/>
		<path id="path7261_7_" inkscape:connector-curvature="0" fill="#E6E6E5" stroke="#646764" stroke-width="0.25" d="
			M128.018,474.012c0,4.562-3.711,8.273-8.273,8.273s-8.273-3.711-8.273-8.273s3.711-8.273,8.273-8.273
			S128.018,469.45,128.018,474.012"/>
		<path id="path7265_7_" inkscape:connector-curvature="0" fill="#010101" d="M119.745,468.911c2.816,0,5.102,2.285,5.102,5.102
			s-2.285,5.102-5.102,5.102s-5.102-2.285-5.102-5.102S116.929,468.911,119.745,468.911"/>
	</g>
	
		<g id="layer1_11_" transform="translate(-88.611154,-119.19859)" inkscape:groupmode="layer" inkscape:label="Layer 1" display="inline">
		<path id="path7255_5_" inkscape:connector-curvature="0" fill="#E6E6E5" stroke="#646764" stroke-width="0.25" d="
			M131.232,384.758c0,6.336-5.15,11.488-11.486,11.488s-11.488-5.152-11.488-11.488s5.152-11.488,11.488-11.488
			S131.232,378.422,131.232,384.758"/>
		<path id="path7261_5_" inkscape:connector-curvature="0" fill="#E6E6E5" stroke="#646764" stroke-width="0.25" d="
			M128.019,384.758c0,4.562-3.711,8.273-8.273,8.273s-8.273-3.711-8.273-8.273s3.711-8.273,8.273-8.273
			S128.019,380.196,128.019,384.758"/>
		<path id="path7265_5_" inkscape:connector-curvature="0" fill="#010101" d="M119.746,379.657c2.816,0,5.102,2.285,5.102,5.102
			s-2.285,5.102-5.102,5.102s-5.102-2.285-5.102-5.102S116.93,379.657,119.746,379.657"/>
	</g>
	
		<g id="layer1_7_" transform="translate(-88.611154,-119.19859)" inkscape:groupmode="layer" inkscape:label="Layer 1" display="inline">
		<path id="path7255_3_" inkscape:connector-curvature="0" fill="#E6E6E5" stroke="#646764" stroke-width="0.25" d="
			M131.231,340.131c0,6.336-5.15,11.488-11.486,11.488s-11.488-5.152-11.488-11.488s5.152-11.488,11.488-11.488
			S131.231,333.795,131.231,340.131"/>
		<path id="path7261_3_" inkscape:connector-curvature="0" fill="#E6E6E5" stroke="#646764" stroke-width="0.25" d="
			M128.018,340.131c0,4.562-3.711,8.273-8.273,8.273s-8.273-3.711-8.273-8.273s3.711-8.273,8.273-8.273
			S128.018,335.569,128.018,340.131"/>
		<path id="path7265_3_" inkscape:connector-curvature="0" fill="#010101" d="M119.745,335.03c2.816,0,5.102,2.285,5.102,5.102
			s-2.285,5.102-5.102,5.102s-5.102-2.285-5.102-5.102S116.929,335.03,119.745,335.03"/>
	</g>
	
		<g id="layer1_9_" transform="translate(-88.611154,-119.19859)" inkscape:groupmode="layer" inkscape:label="Layer 1" display="inline">
		<path id="path7255_2_" inkscape:connector-curvature="0" fill="#E6E6E5" stroke="#646764" stroke-width="0.25" d="
			M360.443,474.256c0,6.336-5.152,11.488-11.488,11.488s-11.488-5.152-11.488-11.488s5.152-11.488,11.488-11.488
			S360.443,467.92,360.443,474.256"/>
		<path id="path7261_2_" inkscape:connector-curvature="0" fill="#E6E6E5" stroke="#646764" stroke-width="0.25" d="
			M357.228,474.256c0,4.562-3.711,8.273-8.273,8.273s-8.273-3.711-8.273-8.273s3.711-8.273,8.273-8.273
			S357.228,469.694,357.228,474.256"/>
		<path id="path7265_2_" inkscape:connector-curvature="0" fill="#010101" d="M348.955,469.155c2.816,0,5.102,2.285,5.102,5.102
			s-2.285,5.102-5.102,5.102s-5.102-2.285-5.102-5.102S346.138,469.155,348.955,469.155"/>
	</g>
	
		<g id="layer1_8_" transform="translate(-88.611154,-119.19859)" inkscape:groupmode="layer" inkscape:label="Layer 1" display="inline">
		<path id="path7255_1_" inkscape:connector-curvature="0" fill="#E6E6E5" stroke="#646764" stroke-width="0.25" d="
			M453.482,474.256c0,6.336-5.152,11.488-11.488,11.488s-11.488-5.152-11.488-11.488s5.152-11.488,11.488-11.488
			S453.482,467.92,453.482,474.256"/>
		<path id="path7261_1_" inkscape:connector-curvature="0" fill="#E6E6E5" stroke="#646764" stroke-width="0.25" d="
			M450.267,474.256c0,4.562-3.711,8.273-8.273,8.273s-8.273-3.711-8.273-8.273s3.711-8.273,8.273-8.273
			S450.267,469.694,450.267,474.256"/>
		<path id="path7265_1_" inkscape:connector-curvature="0" fill="#010101" d="M441.994,469.155c2.816,0,5.102,2.285,5.102,5.102
			s-2.285,5.102-5.102,5.102s-5.102-2.285-5.102-5.102S439.178,469.155,441.994,469.155"/>
	</g>
	
		<g id="layer1_15_" transform="translate(-168.09312,-67.39659)" inkscape:groupmode="layer" inkscape:label="Layer 1" display="inline">
		<path id="path110598_12_" inkscape:connector-curvature="0" fill="#010101" d="M259.822,192.685
			c0,6.261-5.074,11.335-11.336,11.335s-11.34-5.074-11.34-11.335c0-6.266,5.078-11.34,11.34-11.34S259.822,186.42,259.822,192.685"
			/>
		<path id="path110600_12_" inkscape:connector-curvature="0" fill="#FFFFFF" d="M248.861,181.388
			c-0.121-0.027-0.246-0.043-0.375-0.043s-0.254,0.016-0.379,0.043v11.438h0.754V181.388z"/>
	</g>
	
		<g id="layer1_13_" transform="translate(-168.09312,-67.39659)" inkscape:groupmode="layer" inkscape:label="Layer 1" display="inline">
		<path id="path110598_11_" inkscape:connector-curvature="0" fill="#010101" d="M316.413,192.542
			c0,6.261-5.074,11.335-11.336,11.335s-11.34-5.074-11.34-11.335c0-6.266,5.078-11.34,11.34-11.34S316.413,186.276,316.413,192.542
			"/>
		<path id="path110600_11_" inkscape:connector-curvature="0" fill="#FFFFFF" d="M305.452,181.245
			c-0.121-0.027-0.246-0.043-0.375-0.043s-0.254,0.016-0.379,0.043v11.438h0.754V181.245z"/>
	</g>
	
		<g id="layer1_12_" transform="translate(-168.09312,-67.39659)" inkscape:groupmode="layer" inkscape:label="Layer 1" display="inline">
		<path id="path110598_10_" inkscape:connector-curvature="0" fill="#010101" d="M373.004,192.542
			c0,6.261-5.074,11.335-11.336,11.335s-11.34-5.074-11.34-11.335c0-6.266,5.078-11.34,11.34-11.34S373.004,186.276,373.004,192.542
			"/>
		<path id="path110600_10_" inkscape:connector-curvature="0" fill="#FFFFFF" d="M362.043,181.245
			c-0.121-0.027-0.246-0.043-0.375-0.043s-0.254,0.016-0.379,0.043v11.438h0.754V181.245z"/>
	</g>
	
		<g id="layer1_6_" transform="translate(-168.09312,-67.39659)" inkscape:groupmode="layer" inkscape:label="Layer 1" display="inline">
		<path id="path110598_6_" inkscape:connector-curvature="0" fill="#010101" d="M429.595,192.542
			c0,6.261-5.074,11.335-11.336,11.335s-11.34-5.074-11.34-11.335c0-6.266,5.078-11.34,11.34-11.34S429.595,186.276,429.595,192.542
			"/>
		<path id="path110600_6_" inkscape:connector-curvature="0" fill="#FFFFFF" d="M418.634,181.245
			c-0.121-0.027-0.246-0.043-0.375-0.043s-0.254,0.016-0.379,0.043v11.438h0.754V181.245z"/>
	</g>
	
		<g id="layer1_5_" transform="translate(-168.09312,-67.39659)" inkscape:groupmode="layer" inkscape:label="Layer 1" display="inline">
		<path id="path110598_5_" inkscape:connector-curvature="0" fill="#010101" d="M486.187,192.542
			c0,6.261-5.074,11.335-11.336,11.335s-11.34-5.074-11.34-11.335c0-6.266,5.078-11.34,11.34-11.34S486.187,186.276,486.187,192.542
			"/>
		<path id="path110600_5_" inkscape:connector-curvature="0" fill="#FFFFFF" d="M475.226,181.245
			c-0.121-0.027-0.246-0.043-0.375-0.043s-0.254,0.016-0.379,0.043v11.438h0.754V181.245z"/>
	</g>
	
		<g id="layer1_4_" transform="translate(-168.09312,-67.39659)" inkscape:groupmode="layer" inkscape:label="Layer 1" display="inline">
		<path id="path110598_4_" inkscape:connector-curvature="0" fill="#010101" d="M316.036,236.736
			c0,6.262-5.074,11.336-11.336,11.336s-11.34-5.074-11.34-11.336c0-6.266,5.078-11.34,11.34-11.34S316.036,230.471,316.036,236.736
			"/>
		<path id="path110600_4_" inkscape:connector-curvature="0" fill="#FFFFFF" d="M305.075,225.44
			c-0.121-0.027-0.246-0.043-0.375-0.043s-0.254,0.016-0.379,0.043v11.438h0.754V225.44z"/>
	</g>
	
		<g id="layer1_3_" transform="translate(-168.09312,-67.39659)" inkscape:groupmode="layer" inkscape:label="Layer 1" display="inline">
		<path id="path110598_3_" inkscape:connector-curvature="0" fill="#010101" d="M372.825,236.736
			c0,6.262-5.074,11.336-11.335,11.336c-6.262,0-11.34-5.074-11.34-11.336c0-6.266,5.078-11.34,11.34-11.34
			C367.75,225.397,372.825,230.471,372.825,236.736"/>
		<path id="path110600_3_" inkscape:connector-curvature="0" fill="#FFFFFF" d="M361.864,225.44
			c-0.121-0.027-0.246-0.043-0.375-0.043s-0.254,0.016-0.379,0.043v11.438h0.754V225.44z"/>
	</g>
	
		<g id="layer1_2_" transform="translate(-168.09312,-67.39659)" inkscape:groupmode="layer" inkscape:label="Layer 1" display="inline">
		<path id="path110598_2_" inkscape:connector-curvature="0" fill="#010101" d="M429.614,236.736
			c0,6.262-5.074,11.336-11.336,11.336s-11.34-5.074-11.34-11.336c0-6.266,5.078-11.34,11.34-11.34S429.614,230.471,429.614,236.736
			"/>
		<path id="path110600_2_" inkscape:connector-curvature="0" fill="#FFFFFF" d="M418.653,225.44
			c-0.121-0.027-0.246-0.043-0.375-0.043s-0.254,0.016-0.379,0.043v11.438h0.754V225.44z"/>
	</g>
	
		<g id="layer1_1_" transform="translate(-168.09312,-67.39659)" inkscape:groupmode="layer" inkscape:label="Layer 1" display="inline">
		<path id="path110598_1_" inkscape:connector-curvature="0" fill="#010101" d="M486.403,236.736
			c0,6.262-5.074,11.336-11.336,11.336s-11.34-5.074-11.34-11.336c0-6.266,5.078-11.34,11.34-11.34S486.403,230.471,486.403,236.736
			"/>
		<path id="path110600_1_" inkscape:connector-curvature="0" fill="#FFFFFF" d="M475.442,225.44
			c-0.121-0.027-0.246-0.043-0.375-0.043s-0.254,0.016-0.379,0.043v11.438h0.754V225.44z"/>
	</g>
	<polygon display="inline" stroke="#C8C8C8" stroke-width="2" stroke-miterlimit="10" points="203.085,249.193 184.312,238.355 
		203.085,227.518 	"/>
	<g display="inline">
		<rect x="342.68" y="167.121" stroke="#7E7E7E" stroke-miterlimit="10" width="21.406" height="4.433"/>
		<polygon stroke="#7E7E7E" stroke-miterlimit="10" points="355.6,158.635 355.6,167.121 355.6,171.554 355.6,180.041 
			351.167,180.041 351.167,171.554 351.167,167.121 351.167,158.635 		"/>
		<rect x="350.273" y="167.621" width="6.375" height="3.418"/>
	</g>
	<polygon display="inline" fill="#69BD45" stroke="#1B5D2F" stroke-width="2" stroke-miterlimit="10" points="231.613,217.156 
		268.465,238.434 231.613,259.711 	"/>
	<polygon display="inline" stroke="#C8C8C8" stroke-width="2" stroke-miterlimit="10" points="296.993,227.808 315.765,238.646 
		296.993,249.484 	"/>
	
		<g id="layer1_17_" transform="translate(-168.09312,-67.39659)" inkscape:groupmode="layer" inkscape:label="Layer 1" display="inline">
		<path id="path110598_8_" inkscape:connector-curvature="0" fill="#010101" d="M532.814,305.902
			c0,6.262-5.074,11.336-11.336,11.336s-11.34-5.074-11.34-11.336c0-6.266,5.078-11.34,11.34-11.34S532.814,299.637,532.814,305.902
			"/>
		<path id="path110600_8_" inkscape:connector-curvature="0" fill="#FFFFFF" d="M521.853,294.606
			c-0.121-0.027-0.246-0.043-0.375-0.043s-0.254,0.016-0.379,0.043v11.438h0.754V294.606z"/>
	</g>
	<g display="inline">
		<g>
			<polygon stroke="#C8C8C8" stroke-width="2" stroke-miterlimit="10" points="151.438,249.119 132.666,238.281 151.438,227.443 			
				"/>
			<polygon stroke="#C8C8C8" stroke-width="2" stroke-miterlimit="10" points="142.052,249.267 123.28,238.429 142.052,227.591 			
				"/>
		</g>
		<polygon points="144.875,232.469 139.375,235.5 139.375,241.25 144.875,244.042 		"/>
	</g>
	
		<rect x="66.974" y="300.666" display="inline" fill="#ED1F24" stroke="#781214" stroke-width="2" stroke-miterlimit="10" width="19.53" height="19.53"/>
</g>
</svg>
