<?xml version="1.0" encoding="utf-8"?>
<!-- Generator: Adobe Illustrator 16.0.0, SVG Export Plug-In . SVG Version: 6.00 Build 0)  -->
<!DOCTYPE svg PUBLIC "-//W3C//DTD SVG 1.1//EN" "http://www.w3.org/Graphics/SVG/1.1/DTD/svg11.dtd">
<svg version="1.1" xmlns="http://www.w3.org/2000/svg" xmlns:xlink="http://www.w3.org/1999/xlink" x="0px" y="0px" width="390px"
	 height="380px" viewBox="0 0 390 380" enable-background="new 0 0 390 380" xml:space="preserve">
<g id="output">
	<rect x="123" y="285" width="256" height="95"/>
	<text transform="matrix(1 0 0 1 127.374 313.7578)" fill="#FFFFFF" font-family="'Helvetica'" font-size="8">GATE</text>
	<text transform="matrix(1 0 0 1 19.9473 339.5996)" font-family="'Helvetica'" font-size="8">GATE</text>
	<text transform="matrix(1 0 0 1 22.4668 206.2598)" font-family="'Helvetica'" font-size="8">RUN</text>
	<text transform="matrix(1 0 0 1 68.0728 250.1035)" font-family="'Helvetica'" font-size="8">RND</text>
	<text transform="matrix(1 0 0 1 47.1519 127.2886)" font-family="'Helvetica'" font-size="8">LVL</text>
	<text transform="matrix(1 0 0 1 100.3555 171.3398)" font-family="'Helvetica'" font-size="8">POS</text>
	<text transform="matrix(1 0 0 1 290.2432 190.1289)" font-family="'Helvetica'" font-size="8">LENGTH</text>
	<text transform="matrix(1 0 0 1 337.6416 221.2861)" font-family="'Helvetica'" font-size="8">TEMPO</text>
	<text transform="matrix(1 0 0 1 344.9805 191.1289)" font-family="'Helvetica'" font-size="8">ADD</text>
	<text transform="matrix(1 0 0 1 340.3086 336.5996)" fill="#FFFFFF" font-family="'Helvetica'" font-size="8">CLOCK</text>
	<text transform="matrix(1 0 0 1 17.3315 295.5996)" font-family="'Helvetica'" font-size="8">CLOCK</text>
	<text transform="matrix(1 0 0 1 68.2935 295.4336)" font-family="'Helvetica'" font-size="8">REC</text>
	<text transform="matrix(1 0 0 1 166.3364 336.0684)" fill="#FFFFFF" font-family="'Helvetica-Bold'" font-size="12">1</text>
	<text transform="matrix(1 0 0 1 212.5898 336.0684)" fill="#FFFFFF" font-family="'Helvetica-Bold'" font-size="12">2</text>
	<text transform="matrix(1 0 0 1 257.2422 336.0684)" fill="#FFFFFF" font-family="'Helvetica-Bold'" font-size="12">3</text>
	<text transform="matrix(1 0 0 1 303.4297 336.0684)" fill="#FFFFFF" font-family="'Helvetica-Bold'" font-size="12">4</text>
	<text transform="matrix(1 0 0 1 132.7012 359.5996)" fill="#FFFFFF" font-family="'Helvetica'" font-size="8">CV</text>
	<text transform="matrix(1 0 0 1 71.1821 339.5996)" font-family="'Helvetica'" font-size="8">CV</text>
	<rect x="12" y="11.667" width="367" height="95"/>
	<line fill="none" stroke="#7E7E7E" stroke-miterlimit="10" x1="11.45" y1="195.333" x2="378.45" y2="195.333"/>
	<line fill="none" stroke="#000000" stroke-miterlimit="10" x1="12" y1="285" x2="379" y2="285"/>
	<text transform="matrix(1 0 0 1 17.7119 250.3027)" font-family="'Helvetica'" font-size="8">RESET</text>
</g>
<g id="rendered" display="none">
	
		<g id="layer1_33_" transform="translate(-88.611154,-119.19859)" inkscape:groupmode="layer" inkscape:label="Layer 1" display="inline">
		<path id="path7255_15_" inkscape:connector-curvature="0" fill="#E6E6E5" stroke="#646764" stroke-width="0.25" d="
			M315.459,429.629c0,6.336-5.152,11.488-11.488,11.488s-11.488-5.152-11.488-11.488s5.152-11.488,11.488-11.488
			S315.459,423.293,315.459,429.629"/>
		<path id="path7261_15_" inkscape:connector-curvature="0" fill="#E6E6E5" stroke="#646764" stroke-width="0.25" d="
			M312.244,429.629c0,4.562-3.711,8.273-8.273,8.273s-8.273-3.711-8.273-8.273s3.711-8.273,8.273-8.273
			S312.244,425.067,312.244,429.629"/>
		<path id="path7265_15_" inkscape:connector-curvature="0" fill="#010101" d="M303.971,424.528c2.816,0,5.102,2.285,5.102,5.102
			s-2.285,5.102-5.102,5.102s-5.102-2.285-5.102-5.102S301.154,424.528,303.971,424.528"/>
	</g>
	
		<g id="layer1_32_" transform="translate(-88.611154,-119.19859)" inkscape:groupmode="layer" inkscape:label="Layer 1" display="inline">
		<path id="path7255_13_" inkscape:connector-curvature="0" fill="#E6E6E5" stroke="#646764" stroke-width="0.25" d="
			M406.963,429.629c0,6.336-5.152,11.488-11.488,11.488s-11.488-5.152-11.488-11.488s5.152-11.488,11.488-11.488
			S406.963,423.293,406.963,429.629"/>
		<path id="path7261_13_" inkscape:connector-curvature="0" fill="#E6E6E5" stroke="#646764" stroke-width="0.25" d="
			M403.748,429.629c0,4.562-3.711,8.273-8.273,8.273s-8.273-3.711-8.273-8.273s3.711-8.273,8.273-8.273
			S403.748,425.067,403.748,429.629"/>
		<path id="path7265_13_" inkscape:connector-curvature="0" fill="#010101" d="M395.474,424.528c2.816,0,5.102,2.285,5.102,5.102
			s-2.285,5.102-5.102,5.102s-5.102-2.285-5.102-5.102S392.658,424.528,395.474,424.528"/>
	</g>
	
		<g id="layer1_31_" transform="translate(-88.611154,-119.19859)" inkscape:groupmode="layer" inkscape:label="Layer 1" display="inline">
		<path id="path7255_12_" inkscape:connector-curvature="0" fill="#E6E6E5" stroke="#646764" stroke-width="0.25" d="
			M269.51,429.629c0,6.336-5.15,11.488-11.486,11.488s-11.488-5.152-11.488-11.488s5.152-11.488,11.488-11.488
			S269.51,423.293,269.51,429.629"/>
		<path id="path7261_12_" inkscape:connector-curvature="0" fill="#E6E6E5" stroke="#646764" stroke-width="0.25" d="
			M266.297,429.629c0,4.562-3.711,8.273-8.273,8.273s-8.273-3.711-8.273-8.273s3.711-8.273,8.273-8.273
			S266.297,425.067,266.297,429.629"/>
		<path id="path7265_12_" inkscape:connector-curvature="0" fill="#010101" d="M258.023,424.528c2.816,0,5.102,2.285,5.102,5.102
			s-2.285,5.102-5.102,5.102s-5.102-2.285-5.102-5.102S255.207,424.528,258.023,424.528"/>
	</g>
	
		<g id="layer1_30_" transform="translate(-88.611154,-119.19859)" inkscape:groupmode="layer" inkscape:label="Layer 1" display="inline">
		<path id="path7255_11_" inkscape:connector-curvature="0" fill="#E6E6E5" stroke="#646764" stroke-width="0.25" d="
			M360.443,429.629c0,6.336-5.152,11.488-11.488,11.488s-11.488-5.152-11.488-11.488s5.152-11.488,11.488-11.488
			S360.443,423.293,360.443,429.629"/>
		<path id="path7261_11_" inkscape:connector-curvature="0" fill="#E6E6E5" stroke="#646764" stroke-width="0.25" d="
			M357.228,429.629c0,4.562-3.711,8.273-8.273,8.273s-8.273-3.711-8.273-8.273s3.711-8.273,8.273-8.273
			S357.228,425.067,357.228,429.629"/>
		<path id="path7265_11_" inkscape:connector-curvature="0" fill="#010101" d="M348.955,424.528c2.816,0,5.102,2.285,5.102,5.102
			s-2.285,5.102-5.102,5.102s-5.102-2.285-5.102-5.102S346.138,424.528,348.955,424.528"/>
	</g>
	
		<g id="layer1_29_" transform="translate(-88.611154,-119.19859)" inkscape:groupmode="layer" inkscape:label="Layer 1" display="inline">
		<path id="path7255_9_" inkscape:connector-curvature="0" fill="#E6E6E5" stroke="#646764" stroke-width="0.25" d="
			M315.459,474.256c0,6.336-5.152,11.488-11.488,11.488s-11.488-5.152-11.488-11.488s5.152-11.488,11.488-11.488
			S315.459,467.92,315.459,474.256"/>
		<path id="path7261_9_" inkscape:connector-curvature="0" fill="#E6E6E5" stroke="#646764" stroke-width="0.25" d="
			M312.244,474.256c0,4.562-3.711,8.273-8.273,8.273s-8.273-3.711-8.273-8.273s3.711-8.273,8.273-8.273
			S312.244,469.694,312.244,474.256"/>
		<path id="path7265_9_" inkscape:connector-curvature="0" fill="#010101" d="M303.971,469.155c2.816,0,5.102,2.285,5.102,5.102
			s-2.285,5.102-5.102,5.102s-5.102-2.285-5.102-5.102S301.154,469.155,303.971,469.155"/>
	</g>
	
		<g id="layer1_28_" transform="translate(-88.611154,-119.19859)" inkscape:groupmode="layer" inkscape:label="Layer 1" display="inline">
		<path id="path7255_8_" inkscape:connector-curvature="0" fill="#E6E6E5" stroke="#646764" stroke-width="0.25" d="
			M406.963,474.256c0,6.336-5.152,11.488-11.488,11.488s-11.488-5.152-11.488-11.488s5.152-11.488,11.488-11.488
			S406.963,467.92,406.963,474.256"/>
		<path id="path7261_8_" inkscape:connector-curvature="0" fill="#E6E6E5" stroke="#646764" stroke-width="0.25" d="
			M403.748,474.256c0,4.562-3.711,8.273-8.273,8.273s-8.273-3.711-8.273-8.273s3.711-8.273,8.273-8.273
			S403.748,469.694,403.748,474.256"/>
		<path id="path7265_8_" inkscape:connector-curvature="0" fill="#010101" d="M395.474,469.155c2.816,0,5.102,2.285,5.102,5.102
			s-2.285,5.102-5.102,5.102s-5.102-2.285-5.102-5.102S392.658,469.155,395.474,469.155"/>
	</g>
	
		<g id="layer1_27_" transform="translate(-88.611154,-119.19859)" inkscape:groupmode="layer" inkscape:label="Layer 1" display="inline">
		<path id="path7255_6_" inkscape:connector-curvature="0" fill="#E6E6E5" stroke="#646764" stroke-width="0.25" d="M269.51,474.256
			c0,6.336-5.15,11.488-11.486,11.488s-11.488-5.152-11.488-11.488s5.152-11.488,11.488-11.488S269.51,467.92,269.51,474.256"/>
		<path id="path7261_6_" inkscape:connector-curvature="0" fill="#E6E6E5" stroke="#646764" stroke-width="0.25" d="
			M266.297,474.256c0,4.562-3.711,8.273-8.273,8.273s-8.273-3.711-8.273-8.273s3.711-8.273,8.273-8.273
			S266.297,469.694,266.297,474.256"/>
		<path id="path7265_6_" inkscape:connector-curvature="0" fill="#010101" d="M258.023,469.155c2.816,0,5.102,2.285,5.102,5.102
			s-2.285,5.102-5.102,5.102s-5.102-2.285-5.102-5.102S255.207,469.155,258.023,469.155"/>
	</g>
	
		<g id="layer1_19_" transform="translate(-88.611154,-119.19859)" inkscape:groupmode="layer" inkscape:label="Layer 1" display="inline">
		<path id="path7255_18_" inkscape:connector-curvature="0" fill="#E6E6E5" stroke="#646764" stroke-width="0.25" d="
			M176.837,384.758c0,6.336-5.15,11.488-11.486,11.488s-11.488-5.152-11.488-11.488s5.152-11.488,11.488-11.488
			S176.837,378.422,176.837,384.758"/>
		<path id="path7261_18_" inkscape:connector-curvature="0" fill="#E6E6E5" stroke="#646764" stroke-width="0.25" d="
			M173.624,384.758c0,4.562-3.711,8.273-8.273,8.273s-8.273-3.711-8.273-8.273s3.711-8.273,8.273-8.273
			S173.624,380.196,173.624,384.758"/>
		<path id="path7265_18_" inkscape:connector-curvature="0" fill="#010101" d="M165.351,379.657c2.816,0,5.102,2.285,5.102,5.102
			s-2.285,5.102-5.102,5.102s-5.102-2.285-5.102-5.102S162.534,379.657,165.351,379.657"/>
	</g>
	
		<g id="layer1_25_" transform="translate(-88.611154,-119.19859)" inkscape:groupmode="layer" inkscape:label="Layer 1" display="inline">
		<path id="path7255_4_" inkscape:connector-curvature="0" fill="#E6E6E5" stroke="#646764" stroke-width="0.25" d="
			M176.837,474.012c0,6.336-5.15,11.488-11.486,11.488s-11.488-5.152-11.488-11.488s5.152-11.488,11.488-11.488
			S176.837,467.676,176.837,474.012"/>
		<path id="path7261_4_" inkscape:connector-curvature="0" fill="#E6E6E5" stroke="#646764" stroke-width="0.25" d="
			M173.624,474.012c0,4.562-3.711,8.273-8.273,8.273s-8.273-3.711-8.273-8.273s3.711-8.273,8.273-8.273
			S173.624,469.45,173.624,474.012"/>
		<path id="path7265_4_" inkscape:connector-curvature="0" fill="#010101" d="M165.351,468.911c2.816,0,5.102,2.285,5.102,5.102
			s-2.285,5.102-5.102,5.102s-5.102-2.285-5.102-5.102S162.534,468.911,165.351,468.911"/>
	</g>
	
		<g id="layer1_16_" transform="translate(-88.611154,-119.19859)" inkscape:groupmode="layer" inkscape:label="Layer 1" display="inline">
		<path id="path7255_14_" inkscape:connector-curvature="0" fill="#E6E6E5" stroke="#646764" stroke-width="0.25" d="
			M131.231,429.385c0,6.336-5.15,11.488-11.486,11.488s-11.488-5.152-11.488-11.488s5.152-11.488,11.488-11.488
			S131.231,423.049,131.231,429.385"/>
		<path id="path7261_14_" inkscape:connector-curvature="0" fill="#E6E6E5" stroke="#646764" stroke-width="0.25" d="
			M128.018,429.385c0,4.562-3.711,8.273-8.273,8.273s-8.273-3.711-8.273-8.273s3.711-8.273,8.273-8.273
			S128.018,424.823,128.018,429.385"/>
		<path id="path7265_14_" inkscape:connector-curvature="0" fill="#010101" d="M119.745,424.284c2.816,0,5.102,2.285,5.102,5.102
			s-2.285,5.102-5.102,5.102s-5.102-2.285-5.102-5.102S116.929,424.284,119.745,424.284"/>
	</g>
	
		<g id="layer1_10_" transform="translate(-88.611154,-119.19859)" inkscape:groupmode="layer" inkscape:label="Layer 1" display="inline">
		<path id="path7255_7_" inkscape:connector-curvature="0" fill="#E6E6E5" stroke="#646764" stroke-width="0.25" d="
			M131.231,474.012c0,6.336-5.15,11.488-11.486,11.488s-11.488-5.152-11.488-11.488s5.152-11.488,11.488-11.488
			S131.231,467.676,131.231,474.012"/>
		<path id="path7261_7_" inkscape:connector-curvature="0" fill="#E6E6E5" stroke="#646764" stroke-width="0.25" d="
			M128.018,474.012c0,4.562-3.711,8.273-8.273,8.273s-8.273-3.711-8.273-8.273s3.711-8.273,8.273-8.273
			S128.018,469.45,128.018,474.012"/>
		<path id="path7265_7_" inkscape:connector-curvature="0" fill="#010101" d="M119.745,468.911c2.816,0,5.102,2.285,5.102,5.102
			s-2.285,5.102-5.102,5.102s-5.102-2.285-5.102-5.102S116.929,468.911,119.745,468.911"/>
	</g>
	
		<g id="layer1_11_" transform="translate(-88.611154,-119.19859)" inkscape:groupmode="layer" inkscape:label="Layer 1" display="inline">
		<path id="path7255_5_" inkscape:connector-curvature="0" fill="#E6E6E5" stroke="#646764" stroke-width="0.25" d="
			M131.232,384.758c0,6.336-5.15,11.488-11.486,11.488s-11.488-5.152-11.488-11.488s5.152-11.488,11.488-11.488
			S131.232,378.422,131.232,384.758"/>
		<path id="path7261_5_" inkscape:connector-curvature="0" fill="#E6E6E5" stroke="#646764" stroke-width="0.25" d="
			M128.019,384.758c0,4.562-3.711,8.273-8.273,8.273s-8.273-3.711-8.273-8.273s3.711-8.273,8.273-8.273
			S128.019,380.196,128.019,384.758"/>
		<path id="path7265_5_" inkscape:connector-curvature="0" fill="#010101" d="M119.746,379.657c2.816,0,5.102,2.285,5.102,5.102
			s-2.285,5.102-5.102,5.102s-5.102-2.285-5.102-5.102S116.93,379.657,119.746,379.657"/>
	</g>
	
		<g id="layer1_7_" transform="translate(-88.611154,-119.19859)" inkscape:groupmode="layer" inkscape:label="Layer 1" display="inline">
		<path id="path7255_3_" inkscape:connector-curvature="0" fill="#E6E6E5" stroke="#646764" stroke-width="0.25" d="
			M131.231,340.131c0,6.336-5.15,11.488-11.486,11.488s-11.488-5.152-11.488-11.488s5.152-11.488,11.488-11.488
			S131.231,333.795,131.231,340.131"/>
		<path id="path7261_3_" inkscape:connector-curvature="0" fill="#E6E6E5" stroke="#646764" stroke-width="0.25" d="
			M128.018,340.131c0,4.562-3.711,8.273-8.273,8.273s-8.273-3.711-8.273-8.273s3.711-8.273,8.273-8.273
			S128.018,335.569,128.018,340.131"/>
		<path id="path7265_3_" inkscape:connector-curvature="0" fill="#010101" d="M119.745,335.03c2.816,0,5.102,2.285,5.102,5.102
			s-2.285,5.102-5.102,5.102s-5.102-2.285-5.102-5.102S116.929,335.03,119.745,335.03"/>
	</g>
	
		<g id="layer1_9_" transform="translate(-88.611154,-119.19859)" inkscape:groupmode="layer" inkscape:label="Layer 1" display="inline">
		<path id="path7255_2_" inkscape:connector-curvature="0" fill="#E6E6E5" stroke="#646764" stroke-width="0.25" d="
			M360.443,474.256c0,6.336-5.152,11.488-11.488,11.488s-11.488-5.152-11.488-11.488s5.152-11.488,11.488-11.488
			S360.443,467.92,360.443,474.256"/>
		<path id="path7261_2_" inkscape:connector-curvature="0" fill="#E6E6E5" stroke="#646764" stroke-width="0.25" d="
			M357.228,474.256c0,4.562-3.711,8.273-8.273,8.273s-8.273-3.711-8.273-8.273s3.711-8.273,8.273-8.273
			S357.228,469.694,357.228,474.256"/>
		<path id="path7265_2_" inkscape:connector-curvature="0" fill="#010101" d="M348.955,469.155c2.816,0,5.102,2.285,5.102,5.102
			s-2.285,5.102-5.102,5.102s-5.102-2.285-5.102-5.102S346.138,469.155,348.955,469.155"/>
	</g>
	
		<g id="layer1_8_" transform="translate(-88.611154,-119.19859)" inkscape:groupmode="layer" inkscape:label="Layer 1" display="inline">
		<path id="path7255_1_" inkscape:connector-curvature="0" fill="#E6E6E5" stroke="#646764" stroke-width="0.25" d="
			M453.482,474.256c0,6.336-5.152,11.488-11.488,11.488s-11.488-5.152-11.488-11.488s5.152-11.488,11.488-11.488
			S453.482,467.92,453.482,474.256"/>
		<path id="path7261_1_" inkscape:connector-curvature="0" fill="#E6E6E5" stroke="#646764" stroke-width="0.25" d="
			M450.267,474.256c0,4.562-3.711,8.273-8.273,8.273s-8.273-3.711-8.273-8.273s3.711-8.273,8.273-8.273
			S450.267,469.694,450.267,474.256"/>
		<path id="path7265_1_" inkscape:connector-curvature="0" fill="#010101" d="M441.994,469.155c2.816,0,5.102,2.285,5.102,5.102
			s-2.285,5.102-5.102,5.102s-5.102-2.285-5.102-5.102S439.178,469.155,441.994,469.155"/>
	</g>
	
		<g id="layer1_15_" transform="translate(-168.09312,-67.39659)" inkscape:groupmode="layer" inkscape:label="Layer 1" display="inline">
		<path id="path110598_12_" inkscape:connector-curvature="0" fill="#010101" d="M259.822,192.685
			c0,6.261-5.074,11.335-11.336,11.335s-11.34-5.074-11.34-11.335c0-6.266,5.078-11.34,11.34-11.34S259.822,186.42,259.822,192.685"
			/>
		<path id="path110600_12_" inkscape:connector-curvature="0" fill="#FFFFFF" d="M248.861,181.388
			c-0.121-0.027-0.246-0.043-0.375-0.043s-0.254,0.016-0.379,0.043v11.438h0.754V181.388z"/>
	</g>
	
		<g id="layer1_13_" transform="translate(-168.09312,-67.39659)" inkscape:groupmode="layer" inkscape:label="Layer 1" display="inline">
		<path id="path110598_11_" inkscape:connector-curvature="0" fill="#010101" d="M316.413,192.542
			c0,6.261-5.074,11.335-11.336,11.335s-11.34-5.074-11.34-11.335c0-6.266,5.078-11.34,11.34-11.34S316.413,186.276,316.413,192.542
			"/>
		<path id="path110600_11_" inkscape:connector-curvature="0" fill="#FFFFFF" d="M305.452,181.245
			c-0.121-0.027-0.246-0.043-0.375-0.043s-0.254,0.016-0.379,0.043v11.438h0.754V181.245z"/>
	</g>
	
		<g id="layer1_12_" transform="translate(-168.09312,-67.39659)" inkscape:groupmode="layer" inkscape:label="Layer 1" display="inline">
		<path id="path110598_10_" inkscape:connector-curvature="0" fill="#010101" d="M373.004,192.542
			c0,6.261-5.074,11.335-11.336,11.335s-11.34-5.074-11.34-11.335c0-6.266,5.078-11.34,11.34-11.34S373.004,186.276,373.004,192.542
			"/>
		<path id="path110600_10_" inkscape:connector-curvature="0" fill="#FFFFFF" d="M362.043,181.245
			c-0.121-0.027-0.246-0.043-0.375-0.043s-0.254,0.016-0.379,0.043v11.438h0.754V181.245z"/>
	</g>
	
		<g id="layer1_6_" transform="translate(-168.09312,-67.39659)" inkscape:groupmode="layer" inkscape:label="Layer 1" display="inline">
		<path id="path110598_6_" inkscape:connector-curvature="0" fill="#010101" d="M429.595,192.542
			c0,6.261-5.074,11.335-11.336,11.335s-11.34-5.074-11.34-11.335c0-6.266,5.078-11.34,11.34-11.34S429.595,186.276,429.595,192.542
			"/>
		<path id="path110600_6_" inkscape:connector-curvature="0" fill="#FFFFFF" d="M418.634,181.245
			c-0.121-0.027-0.246-0.043-0.375-0.043s-0.254,0.016-0.379,0.043v11.438h0.754V181.245z"/>
	</g>
	
		<g id="layer1_5_" transform="translate(-168.09312,-67.39659)" inkscape:groupmode="layer" inkscape:label="Layer 1" display="inline">
		<path id="path110598_5_" inkscape:connector-curvature="0" fill="#010101" d="M486.187,192.542
			c0,6.261-5.074,11.335-11.336,11.335s-11.34-5.074-11.34-11.335c0-6.266,5.078-11.34,11.34-11.34S486.187,186.276,486.187,192.542
			"/>
		<path id="path110600_5_" inkscape:connector-curvature="0" fill="#FFFFFF" d="M475.226,181.245
			c-0.121-0.027-0.246-0.043-0.375-0.043s-0.254,0.016-0.379,0.043v11.438h0.754V181.245z"/>
	</g>
	
		<g id="layer1_4_" transform="translate(-168.09312,-67.39659)" inkscape:groupmode="layer" inkscape:label="Layer 1" display="inline">
		<path id="path110598_4_" inkscape:connector-curvature="0" fill="#010101" d="M316.036,236.736
			c0,6.262-5.074,11.336-11.336,11.336s-11.34-5.074-11.34-11.336c0-6.266,5.078-11.34,11.34-11.34S316.036,230.471,316.036,236.736
			"/>
		<path id="path110600_4_" inkscape:connector-curvature="0" fill="#FFFFFF" d="M305.075,225.44
			c-0.121-0.027-0.246-0.043-0.375-0.043s-0.254,0.016-0.379,0.043v11.438h0.754V225.44z"/>
	</g>
	
		<g id="layer1_3_" transform="translate(-168.09312,-67.39659)" inkscape:groupmode="layer" inkscape:label="Layer 1" display="inline">
		<path id="path110598_3_" inkscape:connector-curvature="0" fill="#010101" d="M372.825,236.736
			c0,6.262-5.074,11.336-11.335,11.336c-6.262,0-11.34-5.074-11.34-11.336c0-6.266,5.078-11.34,11.34-11.34
			C367.75,225.397,372.825,230.471,372.825,236.736"/>
		<path id="path110600_3_" inkscape:connector-curvature="0" fill="#FFFFFF" d="M361.864,225.44
			c-0.121-0.027-0.246-0.043-0.375-0.043s-0.254,0.016-0.379,0.043v11.438h0.754V225.44z"/>
	</g>
	
		<g id="layer1_2_" transform="translate(-168.09312,-67.39659)" inkscape:groupmode="layer" inkscape:label="Layer 1" display="inline">
		<path id="path110598_2_" inkscape:connector-curvature="0" fill="#010101" d="M429.614,236.736
			c0,6.262-5.074,11.336-11.336,11.336s-11.34-5.074-11.34-11.336c0-6.266,5.078-11.34,11.34-11.34S429.614,230.471,429.614,236.736
			"/>
		<path id="path110600_2_" inkscape:connector-curvature="0" fill="#FFFFFF" d="M418.653,225.44
			c-0.121-0.027-0.246-0.043-0.375-0.043s-0.254,0.016-0.379,0.043v11.438h0.754V225.44z"/>
	</g>
	
		<g id="layer1_1_" transform="translate(-168.09312,-67.39659)" inkscape:groupmode="layer" inkscape:label="Layer 1" display="inline">
		<path id="path110598_1_" inkscape:connector-curvature="0" fill="#010101" d="M486.403,236.736
			c0,6.262-5.074,11.336-11.336,11.336s-11.34-5.074-11.34-11.336c0-6.266,5.078-11.34,11.34-11.34S486.403,230.471,486.403,236.736
			"/>
		<path id="path110600_1_" inkscape:connector-curvature="0" fill="#FFFFFF" d="M475.442,225.44
			c-0.121-0.027-0.246-0.043-0.375-0.043s-0.254,0.016-0.379,0.043v11.438h0.754V225.44z"/>
	</g>
	<polygon display="inline" stroke="#C8C8C8" stroke-width="2" stroke-miterlimit="10" points="203.085,249.193 184.312,238.355 
		203.085,227.518 	"/>
	<g display="inline">
		<rect x="342.68" y="167.121" stroke="#7E7E7E" stroke-miterlimit="10" width="21.406" height="4.433"/>
		<polygon stroke="#7E7E7E" stroke-miterlimit="10" points="355.6,158.635 355.6,167.121 355.6,171.554 355.6,180.041 
			351.167,180.041 351.167,171.554 351.167,167.121 351.167,158.635 		"/>
		<rect x="350.273" y="167.621" width="6.375" height="3.418"/>
	</g>
	<polygon display="inline" fill="#69BD45" stroke="#1B5D2F" stroke-width="2" stroke-miterlimit="10" points="231.613,217.156 
		268.465,238.434 231.613,259.711 	"/>
	<polygon display="inline" stroke="#C8C8C8" stroke-width="2" stroke-miterlimit="10" points="296.993,227.808 315.765,238.646 
		296.993,249.484 	"/>
	
		<g id="layer1_17_" transform="translate(-168.09312,-67.39659)" inkscape:groupmode="layer" inkscape:label="Layer 1" display="inline">
		<path id="path110598_8_" inkscape:connector-curvature="0" fill="#010101" d="M532.814,305.902
			c0,6.262-5.074,11.336-11.336,11.336s-11.34-5.074-11.34-11.336c0-6.266,5.078-11.34,11.34-11.34S532.814,299.637,532.814,305.902
			"/>
		<path id="path110600_8_" inkscape:connector-curvature="0" fill="#FFFFFF" d="M521.853,294.606
			c-0.121-0.027-0.246-0.043-0.375-0.043s-0.254,0.016-0.379,0.043v11.438h0.754V294.606z"/>
	</g>
	<g display="inline">
		<g>
			<polygon stroke="#C8C8C8" stroke-width="2" stroke-miterlimit="10" points="151.438,249.119 132.666,238.281 151.438,227.443 			
				"/>
			<polygon stroke="#C8C8C8" stroke-width="2" stroke-miterlimit="10" points="142.052,249.267 123.28,238.429 142.052,227.591 			
				"/>
		</g>
		<polygon points="144.875,232.469 139.375,235.5 139.375,241.25 144.875,244.042 		"/>
	</g>
	
		<rect x="66.974" y="300.666" display="inline" fill="#ED1F24" stroke="#781214" stroke-width="2" stroke-miterlimit="10" width="19.53" height="19.53"/>
</g>
</svg>
